<svg width="1500.000000" height="1500.000000" viewBox="0 0 1500 1500" fill="none" xmlns="http://www.w3.org/2000/svg" xmlns:xlink="http://www.w3.org/1999/xlink">
	<desc>
			Created with Pixso.
	</desc>
	<g clip-path="url(#clip3_3)">
		<path d="M708.014 644.646C747.249 639.087 784.435 623.742 816.513 600.5C864.434 565.77 964.732 506.674 1060.4 536.112C1192.36 576.714 1192.95 694.176 1158.58 757.985C1124.21 821.794 880.461 1008.64 564.461 978.908C281.697 952.284 226.585 647.761 377.399 592.66C508.202 544.867 552.834 666.649 708.014 644.646Z" fill-rule="nonzero" fill="#8CC5FF"/>
		<g opacity="0.060000">
			<path d="M1035.15 878.493C1035.15 878.493 1054.89 869.471 1062.6 885.151C1070.3 900.843 1042.13 916.917 1026.79 912.296C1011.46 907.676 1014.15 884.572 1035.15 878.493Z" fill-rule="nonzero" fill="#000000"/>
		</g>
		<g opacity="0.060000">
			<path d="M723.579 595.764C723.579 595.764 745.061 589.035 750.955 606.175C756.85 623.314 725.779 636.203 710.597 629.463C695.415 622.723 701.171 599.307 723.579 595.764Z" fill-rule="nonzero" fill="#000000"/>
		</g>
		<path d="M646.104 427.532L646.104 543.535C646.104 546.581 643.638 549.048 640.592 549.048L444.255 549.048C441.209 549.048 438.742 546.581 438.742 543.535L438.742 427.532C438.742 424.487 441.209 422.02 444.255 422.02L640.592 422.02C643.638 422.02 646.104 424.487 646.104 427.532Z" fill-rule="nonzero" fill="#FFFFFF"/>
		<path d="M525.365 493.252C525.365 502.667 521.799 511.249 515.95 517.734C509.257 525.145 499.587 529.789 488.817 529.789C468.632 529.789 452.28 513.437 452.28 493.252C452.28 488.25 453.288 483.478 455.105 479.124L488.817 493.252L487.092 456.762C487.659 456.727 488.238 456.716 488.817 456.716C509.002 456.716 525.354 473.079 525.354 493.252L525.365 493.252Z" fill-rule="nonzero" fill="#409EFF"/>
		<path d="M483.455 450.728C472.535 451.238 462.877 456.53 456.519 464.567C454.469 467.15 452.767 470.022 451.481 473.102L485.192 487.219L483.455 450.728Z" fill-rule="nonzero" fill="#3074EE"/>
		<path d="M608.317 468.088L613.332 468.088L613.332 473.102L608.317 473.102L608.317 468.088Z" fill-rule="evenodd" fill="#409EFF"/>
		<path d="M634.698 469.964L616.725 469.964C616.693 469.964 616.667 469.99 616.667 470.022L616.667 471.168C616.667 471.2 616.693 471.226 616.725 471.226L634.698 471.226C634.729 471.226 634.756 471.2 634.756 471.168L634.756 470.022C634.756 469.99 634.729 469.964 634.698 469.964Z" fill-rule="evenodd" fill="#E8D3E7"/>
		<path d="M608.317 459.148L613.332 459.148L613.332 464.162L608.317 464.162L608.317 459.148Z" fill-rule="evenodd" fill="#409EFF"/>
		<path d="M634.698 461.024L616.725 461.024C616.693 461.024 616.667 461.049 616.667 461.081L616.667 462.228C616.667 462.26 616.693 462.286 616.725 462.286L634.698 462.286C634.729 462.286 634.756 462.26 634.756 462.228L634.756 461.081C634.756 461.049 634.729 461.024 634.698 461.024Z" fill-rule="evenodd" fill="#E8D3E7"/>
		<path d="M608.317 477.028L613.332 477.028L613.332 482.042L608.317 482.042L608.317 477.028Z" fill-rule="evenodd" fill="#409EFF"/>
		<path d="M634.698 478.904L616.725 478.904C616.693 478.904 616.667 478.93 616.667 478.962L616.667 480.108C616.667 480.14 616.693 480.166 616.725 480.166L634.698 480.166C634.729 480.166 634.756 480.14 634.756 480.108L634.756 478.962C634.756 478.93 634.729 478.904 634.698 478.904Z" fill-rule="evenodd" fill="#E8D3E7"/>
		<path d="M634.119 497.769L608.942 497.769C608.596 497.769 608.317 497.491 608.317 497.144C608.317 496.796 608.596 496.518 608.942 496.518L634.119 496.518C634.467 496.518 634.744 496.796 634.744 497.144C634.744 497.491 634.467 497.769 634.119 497.769Z" fill-rule="nonzero" fill="#E8D3E7"/>
		<path d="M634.119 502.934L608.942 502.934C608.596 502.934 608.317 502.656 608.317 502.308C608.317 501.961 608.596 501.683 608.942 501.683L634.119 501.683C634.467 501.683 634.744 501.961 634.744 502.308C634.744 502.656 634.467 502.934 634.119 502.934Z" fill-rule="nonzero" fill="#E8D3E7"/>
		<path d="M634.119 508.087L608.942 508.087C608.596 508.087 608.317 507.809 608.317 507.462C608.317 507.114 608.596 506.836 608.942 506.836L634.119 506.836C634.467 506.836 634.744 507.114 634.744 507.462C634.744 507.809 634.467 508.087 634.119 508.087Z" fill-rule="nonzero" fill="#E8D3E7"/>
		<path d="M634.119 513.252L608.942 513.252C608.596 513.252 608.317 512.974 608.317 512.627C608.317 512.279 608.596 512.001 608.942 512.001L634.119 512.001C634.467 512.001 634.744 512.279 634.744 512.627C634.744 512.974 634.467 513.252 634.119 513.252Z" fill-rule="nonzero" fill="#E8D3E7"/>
		<path d="M634.119 518.406L608.942 518.406C608.596 518.406 608.317 518.128 608.317 517.78C608.317 517.433 608.596 517.155 608.942 517.155L634.119 517.155C634.467 517.155 634.744 517.433 634.744 517.78C634.744 518.128 634.467 518.406 634.119 518.406Z" fill-rule="nonzero" fill="#E8D3E7"/>
		<path d="M634.119 523.571L608.942 523.571C608.596 523.571 608.317 523.293 608.317 522.945C608.317 522.598 608.596 522.32 608.942 522.32L634.119 522.32C634.467 522.32 634.744 522.598 634.744 522.945C634.744 523.293 634.467 523.571 634.119 523.571Z" fill-rule="nonzero" fill="#E8D3E7"/>
		<path d="M634.119 528.724L608.942 528.724C608.596 528.724 608.317 528.446 608.317 528.099C608.317 527.751 608.596 527.473 608.942 527.473L634.119 527.473C634.467 527.473 634.744 527.751 634.744 528.099C634.744 528.446 634.467 528.724 634.119 528.724Z" fill-rule="nonzero" fill="#E8D3E7"/>
		<path d="M646.104 427.532L646.104 437.214L438.742 437.214L438.742 427.532C438.742 424.487 441.209 422.02 444.255 422.02L640.592 422.02C643.638 422.02 646.104 424.487 646.104 427.532Z" fill-rule="nonzero" fill="#28100C"/>
		<path d="M624.252 429.617C624.252 431.03 623.106 432.176 621.693 432.176C620.28 432.176 619.134 431.03 619.134 429.617C619.134 428.204 620.28 427.058 621.693 427.058C623.106 427.058 624.252 428.204 624.252 429.617Z" fill-rule="nonzero" fill="#675FA6"/>
		<path d="M632.532 429.617C632.532 431.03 631.387 432.176 629.974 432.176C628.561 432.176 627.414 431.03 627.414 429.617C627.414 428.204 628.561 427.058 629.974 427.058C631.387 427.058 632.532 428.204 632.532 429.617Z" fill-rule="nonzero" fill="#5C4DA0"/>
		<path d="M640.465 429.617C640.465 431.03 639.319 432.176 637.906 432.176C636.493 432.176 635.347 431.03 635.347 429.617C635.347 428.204 636.493 427.058 637.906 427.058C639.319 427.058 640.465 428.204 640.465 429.617Z" fill-rule="nonzero" fill="#3E3D98"/>
		<path d="M525.365 493.252C525.365 502.667 521.799 511.249 515.95 517.734L488.817 493.252L487.092 456.762C487.659 456.727 488.238 456.716 488.817 456.716C509.002 456.716 525.354 473.079 525.354 493.252L525.365 493.252Z" fill-rule="nonzero" fill="#377BF8"/>
		<path d="M560.941 484.023L572.58 484.023L572.58 533.865L560.941 533.865L560.941 484.023Z" fill-rule="evenodd" fill="#409EFF"/>
		<path d="M560.941 520.722C565.064 519.448 568.932 517.166 572.58 514.711L572.58 533.865L560.941 533.865L560.941 520.722Z" fill-rule="nonzero" fill="#3074EE"/>
		<path d="M541.926 497.873L553.564 497.873L553.564 533.866L541.926 533.866L541.926 497.873Z" fill-rule="evenodd" fill="#409EFF"/>
		<path d="M551.41 521.567C552.14 521.671 552.857 521.741 553.564 521.764L553.564 533.865L541.926 533.865L541.926 521.868C543.987 521.185 546.998 520.918 551.41 521.555L551.41 521.567Z" fill-rule="nonzero" fill="#3074EE"/>
		<path d="M579.956 469.13L591.595 469.13L591.595 533.866L579.956 533.866L579.956 469.13Z" fill-rule="evenodd" fill="#409EFF"/>
		<path d="M591.595 504.613L591.595 533.877L579.956 533.877L579.956 509.581C584.09 506.779 587.946 504.601 591.595 504.613Z" fill-rule="nonzero" fill="#3074EE"/>
		<path d="M591.12 450.254L580.616 452.5L583.431 455.268L567.356 471.655L561.717 466.119L541.775 486.454C541.011 487.23 541.022 488.481 541.798 489.234C542.574 489.998 543.825 489.987 544.577 489.211L561.764 471.689L567.403 477.225L586.233 458.024L589.047 460.792L591.097 450.254L591.12 450.254Z" fill-rule="nonzero" fill="#409EFF"/>
		<path d="M552.116 784.562L552.116 588.063C552.116 585.052 549.685 582.62 546.674 582.62L447.231 582.62C444.22 582.62 441.788 585.052 441.788 588.063L441.788 784.562C441.788 790.642 446.722 795.576 452.801 795.576L541.115 795.576C547.194 795.576 552.116 790.642 552.116 784.562Z" fill-rule="nonzero" fill="#FFFFFF"/>
		<path d="M535.603 731.847L462.1 731.847C460.757 731.847 459.68 730.759 459.68 729.427C459.68 728.084 460.769 727.007 462.1 727.007L535.603 727.007C536.945 727.007 538.022 728.095 538.022 729.427C538.022 730.77 536.934 731.847 535.603 731.847Z" fill-rule="nonzero" fill="#409EFF"/>
		<path d="M535.603 747.226L462.1 747.226C460.757 747.226 459.68 746.138 459.68 744.806C459.68 743.463 460.769 742.386 462.1 742.386L535.603 742.386C536.945 742.386 538.022 743.474 538.022 744.806C538.022 746.149 536.934 747.226 535.603 747.226Z" fill-rule="nonzero" fill="#409EFF"/>
		<path d="M535.603 762.594L462.1 762.594C460.757 762.594 459.68 761.505 459.68 760.173C459.68 758.83 460.769 757.753 462.1 757.753L535.603 757.753C536.945 757.753 538.022 758.842 538.022 760.173C538.022 761.517 536.934 762.594 535.603 762.594Z" fill-rule="nonzero" fill="#409EFF"/>
		<path d="M535.603 777.973L462.1 777.973C460.757 777.973 459.68 776.884 459.68 775.553C459.68 774.209 460.769 773.132 462.1 773.132L535.603 773.132C536.945 773.132 538.022 774.221 538.022 775.553C538.022 776.896 536.934 777.973 535.603 777.973Z" fill-rule="nonzero" fill="#409EFF"/>
		<path d="M552.116 588.063L552.116 603.152L441.788 603.152L441.788 588.063C441.788 585.052 444.22 582.62 447.231 582.62L546.674 582.62C549.685 582.62 552.116 585.052 552.116 588.063Z" fill-rule="nonzero" fill="#28100C"/>
		<path d="M525.399 591.896C525.399 593.876 523.79 595.486 521.81 595.486C519.829 595.486 518.22 593.876 518.22 591.896C518.22 589.916 519.829 588.306 521.81 588.306C523.79 588.306 525.399 589.916 525.399 591.896Z" fill-rule="nonzero" fill="#409EFF"/>
		<path d="M537.026 591.896C537.026 593.876 535.417 595.486 533.437 595.486C531.456 595.486 529.847 593.876 529.847 591.896C529.847 589.916 531.456 588.306 533.437 588.306C535.417 588.306 537.026 589.916 537.026 591.896Z" fill-rule="nonzero" fill="#409EFF"/>
		<path d="M548.155 591.896C548.155 593.876 546.546 595.486 544.565 595.486C542.585 595.486 540.976 593.876 540.976 591.896C540.976 589.916 542.585 588.306 544.565 588.306C546.546 588.306 548.155 589.916 548.155 591.896Z" fill-rule="nonzero" fill="#409EFF"/>
		<path d="M463.629 687.25L476.043 687.25L476.043 717.233L463.629 717.233L463.629 687.25Z" fill-rule="evenodd" fill="#409EFF"/>
		<path d="M481.938 665.954L494.353 665.954L494.353 717.233L481.938 717.233L481.938 665.954Z" fill-rule="evenodd" fill="#409EFF"/>
		<path d="M502.204 650.239L514.618 650.239L514.618 717.233L502.204 717.233L502.204 650.239Z" fill-rule="evenodd" fill="#308FF2"/>
		<path d="M522.053 631.791L534.467 631.791L534.467 717.221L522.053 717.221L522.053 631.791Z" fill-rule="evenodd" fill="#409EFF"/>
		<path d="M511.596 618.659L520.2 621.82L519.204 611.745L511.596 618.659Z" fill-rule="nonzero" fill="#E8D3E7"/>
		<path d="M460.225 672.682C459.842 672.682 459.495 672.45 459.355 672.08C459.183 671.594 459.426 671.061 459.9 670.887C460.271 670.748 497.618 656.435 515.834 617.975C516.055 617.512 516.61 617.315 517.073 617.535C517.537 617.755 517.733 618.311 517.514 618.774C498.962 657.94 460.931 672.485 460.549 672.636C460.444 672.671 460.329 672.694 460.225 672.694L460.225 672.682Z" fill-rule="nonzero" fill="#E8D3E7"/>
		<path d="M685.548 429.617L685.548 460.282C685.548 464.336 688.837 467.624 692.89 467.624L748.569 467.624L765.385 473.658C767.11 474.283 768.766 472.581 768.106 470.879L761.748 454.457L761.748 429.617C761.748 425.564 758.459 422.275 754.406 422.275L692.901 422.275C688.849 422.275 685.56 425.564 685.56 429.617L685.548 429.617Z" fill-rule="nonzero" fill="#409EFF"/>
		<path d="M733.932 445.818C733.932 448.748 736.306 451.134 739.247 451.134C742.188 451.134 744.562 448.76 744.562 445.818C744.562 442.888 742.188 440.503 739.247 440.503C736.306 440.503 733.932 442.877 733.932 445.818Z" fill-rule="nonzero" fill="#3074EE"/>
		<path d="M717.117 445.818C717.117 448.748 719.491 451.134 722.433 451.134C725.374 451.134 727.748 448.76 727.748 445.818C727.748 442.888 725.374 440.503 722.433 440.503C719.491 440.503 717.117 442.877 717.117 445.818Z" fill-rule="nonzero" fill="#3074EE"/>
		<path d="M700.302 445.818C700.302 448.748 702.676 451.134 705.617 451.134C708.559 451.134 710.933 448.76 710.933 445.818C710.933 442.888 708.559 440.503 705.617 440.503C702.676 440.503 700.302 442.877 700.302 445.818Z" fill-rule="nonzero" fill="#3074EE"/>
		<path d="M840.01 431.979L866.518 431.979C868.226 431.979 869.61 433.364 869.61 435.071L869.61 461.579C869.61 463.287 868.226 464.671 866.518 464.671L840.01 464.671C838.303 464.671 836.918 463.287 836.918 461.579L836.918 435.071C836.918 433.364 838.303 431.979 840.01 431.979Z" fill-rule="evenodd" fill="#409EFF"/>
		<path d="M862.5 441.591C862.442 441.371 862.396 441.14 862.338 440.92C862.141 440.12 861.759 439.426 861.227 438.812C860.844 438.372 860.404 437.99 859.895 437.7C859.199 437.306 858.424 437.469 857.914 438.082C856.999 439.182 856.096 440.283 855.192 441.394C854.637 442.078 854.729 443.004 855.413 443.618C855.899 444.046 856.42 444.452 856.93 444.869C856.999 444.926 857.068 444.961 857.127 444.996C855.922 448.25 853.872 450.751 850.931 452.57C850.572 452.269 850.201 451.956 849.831 451.655C849.634 451.493 849.448 451.331 849.252 451.18C848.661 450.728 847.978 450.682 847.364 451.087C847.167 451.215 847.005 451.4 846.854 451.585C846.032 452.581 845.222 453.577 844.399 454.573C844.133 454.886 843.971 455.233 843.913 455.638C843.925 455.789 843.948 455.928 843.959 456.078C844.099 456.333 844.202 456.623 844.399 456.82C844.886 457.295 845.407 457.735 846.044 458.012C846.785 458.348 847.561 458.545 848.372 458.476C848.904 458.429 849.438 458.314 849.958 458.175C851.29 457.804 852.506 457.167 853.641 456.403C854.775 455.638 855.795 454.758 856.744 453.774C858.019 452.454 859.153 451.006 860.184 449.478C860.994 448.273 861.689 447.022 862.141 445.633C862.372 444.938 862.523 444.22 862.569 443.49C862.593 443.201 862.593 442.9 862.604 442.61L862.5 441.603L862.5 441.591Z" fill-rule="nonzero" fill="#FFFFFF"/>
		<path d="M886.98 431.389L914.646 431.389C916.169 431.389 917.403 432.623 917.403 434.145L917.403 461.811C917.403 463.333 916.169 464.567 914.646 464.567L886.98 464.567C885.459 464.567 884.225 463.333 884.225 461.811L884.225 434.145C884.225 432.623 885.459 431.389 886.98 431.389Z" fill-rule="evenodd" fill="#3074EE"/>
		<path d="M911.416 447.358C911.416 451.493 909.1 453.647 906.32 453.647C904.699 453.647 903.507 453.021 902.904 451.759C902.302 452.952 901.26 453.647 899.615 453.647C897.276 453.647 895.029 451.585 895.029 448.25C895.029 444.915 897.219 442.877 899.615 442.877C900.762 442.877 901.653 443.247 902.279 443.942L902.279 443.073L906.437 443.073L906.437 449.269C906.437 450.184 906.807 450.462 907.282 450.462C907.884 450.462 908.382 449.86 908.382 447.428C908.382 443.502 905.452 440.734 900.993 440.734C896.559 440.734 893.57 443.849 893.57 447.972C893.57 452.095 896.5 455.245 900.912 455.245C902.349 455.245 903.819 454.967 905.29 454.295L906.205 456.959C904.908 457.584 902.847 458.001 900.924 458.001C894.404 458.001 890.224 453.647 890.224 447.972C890.224 442.379 894.404 437.99 901.005 437.99C907.247 437.99 911.428 442.17 911.428 447.37L911.416 447.358ZM902.36 448.25C902.36 446.953 901.688 446.281 900.797 446.281C899.905 446.281 899.257 446.953 899.257 448.25C899.257 449.547 899.905 450.242 900.797 450.242C901.688 450.242 902.36 449.57 902.36 448.25Z" fill-rule="nonzero" fill="#FFFFFF"/>
		<path d="M931.705 431.389L959.371 431.389C960.894 431.389 962.128 432.623 962.128 434.145L962.128 461.811C962.128 463.333 960.894 464.567 959.371 464.567L931.705 464.567C930.184 464.567 928.949 463.333 928.949 461.811L928.949 434.145C928.949 432.623 930.184 431.389 931.705 431.389Z" fill-rule="evenodd" fill="#3E3D98"/>
		<path d="M947.271 455.627L947.247 457.989L944.248 457.966L944.271 455.708C942.14 455.557 940.079 454.967 938.816 454.179L940.461 450.531C941.862 451.377 943.727 451.921 945.371 451.933C946.795 451.944 947.305 451.655 947.316 451.145C947.328 449.269 939.083 450.717 939.129 445.158C939.152 442.749 940.912 440.746 944.41 440.283L944.433 437.967L947.433 437.99L947.409 440.271C948.984 440.433 950.513 440.85 951.717 441.545L950.177 445.17C948.718 444.417 947.34 444.035 946.031 444.035C944.561 444.023 944.086 444.44 944.086 444.95C944.074 446.733 952.319 445.32 952.273 450.809C952.25 453.102 950.582 455.094 947.271 455.639L947.271 455.627Z" fill-rule="nonzero" fill="#FFFFFF"/>
		<g opacity="0.060000">
			<path d="M1052.83 1047.06C1052.83 1051.73 1098.84 1055.5 1155.59 1055.5C1212.35 1055.5 1258.36 1051.73 1258.36 1047.06C1258.36 1042.39 1212.35 1038.62 1155.59 1038.62C1098.84 1038.62 1052.83 1042.39 1052.83 1047.06Z" fill-rule="nonzero" fill="#000000"/>
		</g>
		<path d="M1093.46 964.699L1221.54 964.699C1222.36 964.699 1223.03 965.362 1223.03 966.181L1223.03 973.593C1223.03 974.411 1222.36 975.075 1221.54 975.075L1093.46 975.075C1092.64 975.075 1091.98 974.411 1091.98 973.593L1091.98 966.181C1091.98 965.362 1092.64 964.699 1093.46 964.699Z" fill-rule="evenodd" fill="#3D2027"/>
		<path d="M1097.48 849.692L1217.27 849.692C1219.26 849.692 1220.87 851.304 1220.87 853.293L1220.87 868.012C1220.87 870.001 1219.26 871.614 1217.27 871.614L1097.48 871.614C1095.49 871.614 1093.88 870.001 1093.88 868.012L1093.88 853.293C1093.88 851.304 1095.49 849.692 1097.48 849.692Z" fill-rule="evenodd" fill="#8C5D55"/>
		<path d="M1158.57 792.657L1170.21 792.657C1170.21 792.657 1170.78 791.499 1171.78 789.38C1172.26 788.384 1172.84 787.168 1173.5 785.755C1175.15 782.235 1177.33 777.521 1179.83 771.951C1179.85 771.905 1179.88 771.859 1179.9 771.801C1195.6 736.897 1223.76 669.139 1212.25 655.659C1199.16 640.361 1183.55 663.279 1172.2 706.671C1171.42 709.648 1170.66 712.728 1169.93 715.89C1165.87 733.388 1162.47 753.654 1160.13 775.715C1159.79 779.015 1159.46 782.362 1159.15 785.744C1158.94 788.025 1158.75 790.33 1158.57 792.646L1158.57 792.657Z" fill-rule="nonzero" fill="#409EFF"/>
		<path d="M1159.15 785.755L1162.66 792.657L1170.21 792.657C1170.21 792.657 1170.78 791.499 1171.78 789.38L1172.2 706.683C1166.47 728.593 1161.82 755.703 1159.15 785.755Z" fill-rule="nonzero" fill="#377CF9"/>
		<path d="M1162.24 792.657L1164.14 792.657L1200.8 672.52C1200.95 672.034 1200.68 671.536 1200.2 671.385C1199.71 671.235 1199.21 671.513 1199.07 671.987L1162.24 792.657Z" fill-rule="nonzero" fill="#FFFFFF"/>
		<path d="M1128.81 768.269C1129.68 770.214 1130.51 772.067 1131.3 773.827C1133.45 778.575 1135.33 782.629 1136.79 785.755C1138.84 790.133 1140.06 792.657 1140.06 792.657L1151.7 792.657C1151.53 790.341 1151.33 788.037 1151.12 785.755C1150.83 782.536 1150.52 779.351 1150.2 776.201C1147.93 754.661 1144.66 734.812 1140.74 717.58C1140.13 714.905 1139.51 712.311 1138.87 709.775C1127.46 664.391 1111.42 640.002 1098.04 655.67C1086.9 668.698 1112.87 732.531 1128.81 768.269Z" fill-rule="nonzero" fill="#409EFF"/>
		<path d="M1151.13 785.755L1147.62 792.657L1140.08 792.657C1140.08 792.657 1139.51 791.499 1138.5 789.38L1138.08 706.683C1143.82 728.593 1148.46 755.703 1151.13 785.755Z" fill-rule="nonzero" fill="#377CF9"/>
		<path d="M1148.05 792.657L1146.15 792.657L1109.49 672.52C1109.34 672.034 1109.62 671.536 1110.09 671.385C1110.58 671.235 1111.09 671.513 1111.23 671.987L1148.05 792.657Z" fill-rule="nonzero" fill="#FFFFFF"/>
		<path d="M1140.75 717.58C1142.38 740.556 1144.64 762.038 1146.26 776.097C1147.44 786.369 1148.27 792.657 1148.27 792.657L1158.58 792.657C1159.79 786.89 1160.9 781.181 1161.93 775.529C1165.74 754.557 1168.37 734.453 1169.94 715.901C1175.97 644.784 1166.53 596.424 1149.19 609.302C1136.76 618.543 1137.47 671.084 1140.75 717.569L1140.75 717.58Z" fill-rule="nonzero" fill="#409EFF"/>
		<path d="M1131.3 773.827C1133.45 778.575 1135.33 782.628 1136.79 785.755C1138.84 790.133 1140.06 792.657 1140.06 792.657L1170.21 792.657C1170.21 792.657 1170.78 791.499 1171.78 789.38C1172.26 788.384 1172.84 787.168 1173.5 785.755C1175.15 782.235 1177.33 777.521 1179.83 771.951C1176.14 773.017 1169.71 774.638 1161.92 775.53C1161.33 775.599 1160.73 775.657 1160.13 775.715C1156.99 776.028 1153.66 776.201 1150.21 776.19C1148.9 776.19 1147.59 776.155 1146.26 776.085C1141.36 775.842 1136.3 775.147 1131.31 773.816L1131.3 773.827Z" fill-rule="nonzero" fill="#377CF9"/>
		<path d="M1154.31 631.513L1155.54 792.657L1157.35 792.657L1156.13 631.502C1156.13 631.004 1155.71 630.61 1155.21 630.598C1154.71 630.598 1154.31 631.015 1154.31 631.513Z" fill-rule="nonzero" fill="#FFFFFF"/>
		<path d="M1102.54 791.418L1104.05 795.414L1105 797.95L1107.73 805.211L1108.68 807.747L1111.48 815.193L1112.43 817.718L1124.48 849.692L1190.25 849.692L1202.3 817.718L1203.25 815.193L1206.05 807.747L1207 805.211L1209.73 797.95L1210.68 795.414L1212.19 791.418C1213.22 788.674 1211.19 785.755 1208.27 785.755L1106.43 785.755C1103.5 785.755 1101.49 788.685 1102.52 791.418L1102.54 791.418Z" fill-rule="nonzero" fill="#FBB416"/>
		<path d="M1104.05 795.413L1105 797.95L1209.76 797.95L1210.71 795.413L1104.05 795.413Z" fill-rule="nonzero" fill="#F8A81B"/>
		<path d="M1107.73 805.199L1108.69 807.735L1206.06 807.735L1207.02 805.199L1107.73 805.199Z" fill-rule="nonzero" fill="#F8A81B"/>
		<path d="M1111.49 815.193L1112.44 817.718L1202.31 817.718L1203.26 815.193L1111.49 815.193Z" fill-rule="nonzero" fill="#F8A81B"/>
		<path d="M1174.99 871.614L1178.65 883.38L1229.42 1047.06L1239.34 1047.06L1207.15 886.715L1204.12 871.614L1174.99 871.614Z" fill-rule="nonzero" fill="#6E4945"/>
		<path d="M1204.12 871.614L1174.99 871.614L1178.65 883.38L1207.15 886.715L1204.12 871.614Z" fill-rule="nonzero" fill="#3D2027"/>
		<path d="M1075.11 1047.06L1085.03 1047.06L1137.31 878.539L1139.46 871.614L1110.35 871.614L1109.62 875.285L1109.61 875.285L1075.11 1047.06Z" fill-rule="nonzero" fill="#6E4945"/>
		<path d="M1109.62 875.285L1137.31 878.539L1139.46 871.614L1110.35 871.614L1109.62 875.285Z" fill-rule="nonzero" fill="#3D2027"/>
		<path d="M1220.17 952.516L1094.86 952.516C1093.28 952.516 1091.99 951.23 1091.99 949.644L1091.99 945.012C1091.99 943.426 1093.28 942.14 1094.86 942.14L1220.17 942.14C1221.75 942.14 1223.04 943.426 1223.04 945.012L1223.04 949.644C1223.04 951.23 1221.75 952.516 1220.17 952.516Z" fill-rule="evenodd" fill="#8C5D55"/>
		<path d="M410.019 487.605C427.919 505.505 427.919 534.527 410.019 552.427C392.119 570.327 363.098 570.327 345.197 552.427C327.297 534.527 327.297 505.505 345.197 487.605C363.098 469.705 392.119 469.705 410.019 487.605Z" fill-rule="evenodd" fill="#F2D6BA"/>
		<path d="M410.028 481.639C427.929 499.539 427.929 528.561 410.028 546.461C392.129 564.361 363.107 564.361 345.207 546.461C327.307 528.561 327.307 499.539 345.207 481.639C363.107 463.739 392.129 463.739 410.028 481.639Z" fill-rule="evenodd" fill="#FBB416"/>
		<path d="M383.544 477.26C403.863 480.533 417.683 499.659 414.41 519.978C411.137 540.298 392.012 554.117 371.691 550.845C351.372 547.572 337.553 528.446 340.825 508.126C344.099 487.807 363.224 473.987 383.544 477.26Z" fill-rule="evenodd" fill="#FFFFFF"/>
		<path d="M340.354 514.051C340.354 515.047 340.389 516.031 340.47 516.993C341.975 497.815 358.061 482.668 377.62 482.668C397.18 482.668 413.265 497.815 414.771 516.993C414.852 516.02 414.887 515.035 414.887 514.051C414.887 493.507 398.176 476.785 377.62 476.785C357.076 476.785 340.354 493.495 340.354 514.051Z" fill-rule="nonzero" fill="#F2D6BA"/>
		<path d="M377.608 517.919C377.898 517.919 378.176 517.78 378.361 517.537L396.647 492.928C396.96 492.511 396.867 491.932 396.45 491.619C396.033 491.307 395.454 491.399 395.142 491.816L377.308 515.834L357.042 506.941C356.566 506.732 356.022 506.941 355.814 507.415C355.605 507.89 355.814 508.434 356.289 508.643L377.238 517.838C377.354 517.896 377.481 517.919 377.608 517.919Z" fill-rule="nonzero" fill="#28100C"/>
		<g opacity="0.060000">
			<path d="M248.878 1049.46C248.878 1055.35 288.553 1060.12 337.493 1060.12C386.433 1060.12 426.107 1055.34 426.107 1049.46C426.107 1043.57 386.433 1038.79 337.493 1038.79C288.553 1038.79 248.878 1043.57 248.878 1049.46Z" fill-rule="nonzero" fill="#000000"/>
		</g>
		<path d="M254.843 746.3L275.525 1048.79L399.461 1048.79L420.145 746.3L254.843 746.3Z" fill-rule="nonzero" fill="#6E4945"/>
		<path d="M256.221 766.45L418.129 775.773L419.287 758.807L255.699 758.807L256.221 766.45Z" fill-rule="nonzero" fill="#3D2027"/>
		<path d="M248.682 740.035L426.305 740.035C428.378 740.035 430.058 741.714 430.058 743.787L430.058 755.055C430.058 757.128 428.378 758.807 426.305 758.807L248.682 758.807C246.608 758.807 244.93 757.128 244.93 755.055L244.93 743.787C244.93 741.714 246.608 740.035 248.682 740.035Z" fill-rule="nonzero" fill="#8C5D55"/>
		<path d="M273.359 793.259L277.424 864.874L397.562 864.874L401.626 793.259L273.359 793.259Z" fill-rule="nonzero" fill="#3D2027"/>
		<path d="M331.494 832.02C331.494 835.332 334.181 838.019 337.493 838.019C340.805 838.019 343.491 835.332 343.491 832.02C343.491 828.708 340.805 826.021 337.493 826.021C334.181 826.021 331.494 828.708 331.494 832.02Z" fill-rule="nonzero" fill="#6E4945"/>
		<path d="M279.011 881.643L282.717 946.946L392.269 946.946L395.975 881.643L279.011 881.643Z" fill-rule="nonzero" fill="#3D2027"/>
		<path d="M331.494 916.662C331.494 919.974 334.181 922.661 337.493 922.661C340.805 922.661 343.491 919.974 343.491 916.662C343.491 913.35 340.805 910.664 337.493 910.664C334.181 910.664 331.494 913.35 331.494 916.662Z" fill-rule="nonzero" fill="#6E4945"/>
		<path d="M283.898 963.436L287.292 1023.27L387.695 1023.27L391.089 963.436L283.898 963.436Z" fill-rule="nonzero" fill="#3D2027"/>
		<path d="M331.494 993.361C331.494 996.673 334.181 999.359 337.493 999.359C340.805 999.359 343.491 996.673 343.491 993.361C343.491 990.049 340.805 987.362 337.493 987.362C334.181 987.362 331.494 990.049 331.494 993.361Z" fill-rule="nonzero" fill="#6E4945"/>
		<path d="M284.488 633.563C286.318 643.58 288.414 651.339 288.414 651.339C288.414 651.339 293.44 662.549 297.922 665.861C301.049 668.166 303.909 666.626 304.615 654.698C304.731 652.764 304.789 650.552 304.777 648.039C304.777 648.039 305.484 642.318 305.82 634.466C306.562 617.362 305.554 590.136 291.738 589.649C278.687 589.186 281.142 615.185 284.488 633.586L284.488 633.563Z" fill-rule="nonzero" fill="#409EFF"/>
		<path d="M305.819 634.455C303.805 638.473 300.481 642.874 295.652 642.503C290.638 642.109 286.827 637.466 284.488 633.563C286.318 643.58 288.414 651.339 288.414 651.339C288.414 651.339 293.44 662.549 297.922 665.861C300.666 664.124 302.925 660.094 304.615 654.698L305.819 634.466L305.819 634.455Z" fill-rule="nonzero" fill="#377CF9"/>
		<path d="M297.297 663.163C297.713 663.163 298.061 662.839 298.096 662.422C298.871 650.54 294.876 612.012 294.702 610.379C294.656 609.939 294.274 609.626 293.822 609.672C293.382 609.719 293.069 610.112 293.116 610.552C293.162 610.946 297.262 650.575 296.497 662.318C296.475 662.758 296.799 663.14 297.238 663.163C297.262 663.163 297.273 663.163 297.297 663.163Z" fill-rule="nonzero" fill="#FFFFFF"/>
		<path d="M294.031 686.185L310.719 686.185C310.719 686.185 325.913 685.05 321.165 672.219C316.417 659.388 322.52 656.342 329.85 647.888C337.181 639.434 348.171 621.542 335.953 616.042C323.747 610.541 311.529 623.801 306.631 637.987C305.114 642.364 304.616 646.452 304.071 650.401C303.782 652.52 303.481 654.616 303.006 656.689C302.161 660.349 300.771 663.95 297.923 667.645C297.841 667.737 297.771 667.842 297.69 667.934C289.955 677.708 294.031 686.185 294.031 686.185Z" fill-rule="nonzero" fill="#409EFF"/>
		<path d="M294.031 686.185L308.6 686.185C311.321 673.238 306.619 662.63 303.006 656.689C302.161 660.349 300.771 663.95 297.923 667.645C297.841 667.737 297.771 667.842 297.69 667.934C289.955 677.708 294.031 686.185 294.031 686.185Z" fill-rule="nonzero" fill="#377CF9"/>
		<path d="M305.994 685.849C306.422 685.849 306.781 685.502 306.793 685.073C307.592 656.377 326.781 631.525 326.978 631.27C327.244 630.923 327.187 630.425 326.839 630.147C326.491 629.88 325.993 629.938 325.716 630.286C325.519 630.54 306.005 655.798 305.194 685.027C305.183 685.467 305.53 685.838 305.971 685.849L305.994 685.849Z" fill-rule="nonzero" fill="#FFFFFF"/>
		<path d="M255.363 647.9C267.986 658.183 274.495 659.283 272.862 669.115C272.317 672.358 271.878 675.508 271.878 678.31C271.889 683.985 273.776 688.235 280.598 688.918C290.777 689.926 299.323 686.197 299.323 686.197C299.323 686.197 302.357 678.947 302.821 670.389C303.249 662.433 301.466 653.343 292.966 647.9C275.317 636.609 278.571 592 255.375 596.192C232.179 600.385 242.752 637.628 255.375 647.9L255.363 647.9Z" fill-rule="nonzero" fill="#409EFF"/>
		<path d="M271.889 678.311C271.9 683.985 273.788 688.235 280.608 688.918C290.788 689.926 299.335 686.197 299.335 686.197C299.335 686.197 302.369 678.948 302.832 670.389C298.895 672.844 286.665 679.515 271.9 678.311L271.889 678.311Z" fill-rule="nonzero" fill="#377CF9"/>
		<path d="M289.445 684.356C289.84 684.356 290.187 684.054 290.233 683.649C290.257 683.429 292.758 661.113 278.178 647.552C264.072 634.443 258.514 612.95 258.468 612.729C258.363 612.301 257.924 612.046 257.495 612.151C257.066 612.255 256.812 612.695 256.916 613.123C256.974 613.343 262.637 635.289 277.089 648.722C291.079 661.727 288.67 683.232 288.646 683.452C288.589 683.892 288.901 684.286 289.342 684.344C289.376 684.344 289.411 684.344 289.435 684.344L289.445 684.356Z" fill-rule="nonzero" fill="#FFFFFF"/>
		<path d="M273.476 740.313L269.388 705.513L269.202 703.892L268.646 699.121L268.449 697.499L267.905 692.844L267.72 691.223L266.573 681.449L324.72 681.449L323.573 691.223L323.376 692.844L322.832 697.499L322.646 699.121L322.091 703.892L321.894 705.513L317.817 740.313L273.476 740.313Z" fill-rule="nonzero" fill="#FBB416"/>
		<path d="M267.72 691.223L267.905 692.844L323.376 692.844L323.573 691.223L267.72 691.223Z" fill-rule="nonzero" fill="#F8A81B"/>
		<path d="M268.449 697.499L268.646 699.121L322.646 699.121L322.832 697.499L268.449 697.499Z" fill-rule="nonzero" fill="#F8A81B"/>
		<path d="M269.202 703.892L269.388 705.513L321.894 705.513L322.091 703.892L269.202 703.892Z" fill-rule="nonzero" fill="#F8A81B"/>
		<path d="M359.45 684.645L359.879 689.521L360.099 692.033L360.308 694.407L360.608 697.743L360.747 699.318L361.35 706.312L362.021 713.921L362.044 714.28L362.473 719.109L362.67 721.471L362.809 723L363.48 730.771L364.314 740.406L391.111 740.406L391.309 738.205L392.119 728.825L392.617 723.174L392.756 721.471L392.965 719.109L393.416 713.921L393.428 713.77L393.926 708.13L394.69 699.318L394.748 698.681L395.118 694.407L395.234 693.076L395.327 692.033L395.976 684.645L359.45 684.645Z" fill-rule="nonzero" fill="#409EFF"/>
		<path d="M360.099 692.033L360.307 694.407L395.118 694.407L395.234 693.076L395.327 692.033L360.099 692.033Z" fill-rule="nonzero" fill="#377CF9"/>
		<path d="M362.473 719.109L362.67 721.471L392.756 721.471L392.965 719.109L362.473 719.109Z" fill-rule="nonzero" fill="#377CF9"/>
		<path d="M360.735 699.318L361.35 706.312L362.021 713.921L393.416 713.921L393.428 713.77L393.926 708.13L394.689 699.318L360.735 699.318Z" fill-rule="nonzero" fill="#FFFFFF"/>
		<path d="M357.586 677.511L397.852 677.511L397.852 684.645L357.586 684.645L357.586 677.511Z" fill-rule="evenodd" fill="#409EFF"/>
		<path d="M360.619 677.511L394.816 677.511L394.816 673.168C394.816 672.219 394.053 671.455 393.103 671.455L362.333 671.455C361.384 671.455 360.619 672.219 360.619 673.168L360.619 677.511Z" fill-rule="nonzero" fill="#377CF9"/>
		<path d="M1155.86 508.782L1215.49 508.782L1224.22 449.154L1164.59 449.154L1155.86 508.782Z" fill-rule="nonzero" fill="#8C5D55"/>
		<path d="M1224.22 449.154L1232.48 508.782L1215.49 508.782L1224.22 449.154Z" fill-rule="nonzero" fill="#3D2027"/>
		<path d="M1211.86 504.532L1219.34 453.404L1168.22 453.404L1160.73 504.532L1211.86 504.532Z" fill-rule="nonzero" fill="#DFDBC8"/>
		<path d="M1211.13 503.687L1218.37 454.249L1168.95 454.249L1161.71 503.687L1211.13 503.687Z" fill-rule="nonzero" fill="#FFFFFF"/>
		<path d="M1173.38 460.306L1167.92 497.63L1206.73 497.63L1212.19 460.306L1173.38 460.306Z" fill-rule="nonzero" fill="#E5C09F"/>
		<path d="M1196.43 465.717C1202.83 468.368 1205.87 475.704 1203.22 482.104C1200.57 488.503 1193.23 491.542 1186.83 488.891C1180.43 486.241 1177.39 478.904 1180.04 472.505C1182.7 466.105 1190.03 463.067 1196.43 465.717Z" fill-rule="evenodd" fill="#F2D6BA"/>
		<path d="M1192.84 478.279C1192.84 478.279 1184.96 469.061 1172.01 469.686L1167.93 497.63L1192.84 478.279Z" fill-rule="nonzero" fill="#00443C"/>
		<path d="M1210.39 472.57C1210.39 472.57 1199.28 470.311 1187.74 478.962C1176.2 487.613 1167.92 497.63 1167.92 497.63L1206.72 497.63L1210.39 472.57Z" fill-rule="nonzero" fill="#006D61"/>
		<g opacity="0.060000">
			<path d="M1005.65 533.634L1254.56 533.634L1257.83 522.285L1001.92 522.285L1005.65 533.634Z" fill-rule="nonzero" fill="#000000"/>
		</g>
		<path d="M1257.88 522.285L1001.7 522.285L1001.7 508.782L1257.88 508.782L1257.88 522.285Z" fill-rule="evenodd" fill="#6E4945"/>
		<path d="M1245.11 522.285L1239.65 533.738L1226.76 533.738L1223.08 522.285L1245.11 522.285Z" fill-rule="nonzero" fill="#3D2027"/>
		<path d="M1018.44 522.285L1023.91 533.738L1036.8 533.738L1040.47 522.285L1018.44 522.285Z" fill-rule="nonzero" fill="#3D2027"/>
		<path d="M1031.4 494.283L1029.5 494.283L1029.5 491.446L1101.23 491.538C1103.61 491.538 1105.76 492.5 1107.33 494.075C1108.88 495.638 1109.84 497.78 1109.84 500.166C1109.84 504.926 1105.97 508.77 1101.21 508.77L1029.48 508.678L1029.48 506.223L1031.38 506.223L1031.38 494.283L1031.4 494.283Z" fill-rule="nonzero" fill="#377CF9"/>
		<path d="M1030.9 494.283L1030.9 506.223L1096.71 506.304C1099.91 506.304 1102.52 503.64 1102.53 500.34C1102.53 498.684 1101.88 497.201 1100.83 496.113C1099.77 495.036 1098.33 494.364 1096.72 494.364L1030.89 494.283L1030.9 494.283Z" fill-rule="nonzero" fill="#FFFFFF"/>
		<path d="M1030.9 497.306L1030.9 499.135L1095.01 499.216C1095.51 499.216 1095.93 498.811 1095.93 498.302C1095.93 497.792 1095.52 497.387 1095.03 497.387L1030.9 497.306Z" fill-rule="nonzero" fill="#E5C09F"/>
		<path d="M1030.89 501.799L1030.89 503.629L1095 503.71C1095.5 503.71 1095.92 503.304 1095.92 502.806C1095.92 502.297 1095.51 501.891 1095.01 501.891L1030.89 501.81L1030.89 501.799Z" fill-rule="nonzero" fill="#E5C09F"/>
		<path d="M1037.81 477.063L1035.91 477.063L1035.91 474.225L1107.64 474.318C1110.01 474.318 1112.17 475.279 1113.73 476.854C1115.28 478.418 1116.24 480.56 1116.24 482.946C1116.24 487.705 1112.38 491.55 1107.62 491.55L1035.88 491.457L1035.88 489.002L1037.78 489.002L1037.78 477.063L1037.81 477.063Z" fill-rule="nonzero" fill="#FBB416"/>
		<path d="M1037.32 477.063L1037.32 489.002L1103.12 489.083C1106.33 489.083 1108.93 486.42 1108.95 483.119C1108.95 481.463 1108.3 479.981 1107.24 478.892C1106.19 477.815 1104.74 477.144 1103.13 477.144L1037.31 477.063L1037.32 477.063Z" fill-rule="nonzero" fill="#FFFFFF"/>
		<path d="M1037.31 480.085L1037.31 481.915L1101.42 481.996C1101.92 481.996 1102.33 481.591 1102.33 481.093C1102.33 480.583 1101.93 480.178 1101.43 480.178L1037.31 480.097L1037.31 480.085Z" fill-rule="nonzero" fill="#E5C09F"/>
		<path d="M1037.31 484.578L1037.31 486.408L1101.42 486.489C1101.92 486.489 1102.33 486.084 1102.33 485.574C1102.33 485.065 1101.93 484.66 1101.43 484.66L1037.31 484.578Z" fill-rule="nonzero" fill="#E5C09F"/>
		<path d="M1025.3 459.819L1023.4 459.819L1023.4 456.982L1095.13 457.075C1097.5 457.075 1099.66 458.036 1101.22 459.611C1102.77 461.174 1103.73 463.317 1103.73 465.702C1103.73 470.462 1099.87 474.307 1095.11 474.307L1023.38 474.214L1023.38 471.759L1025.28 471.759L1025.28 459.819L1025.3 459.819Z" fill-rule="nonzero" fill="#377CF9"/>
		<path d="M1024.81 459.819L1024.81 471.759L1090.61 471.84C1093.83 471.84 1096.43 469.176 1096.44 465.876C1096.44 464.22 1095.79 462.737 1094.74 461.649C1093.68 460.572 1092.24 459.9 1090.63 459.9L1024.8 459.819L1024.81 459.819Z" fill-rule="nonzero" fill="#FFFFFF"/>
		<path d="M1024.8 462.842L1024.8 464.671L1088.91 464.752C1089.41 464.752 1089.83 464.347 1089.83 463.849C1089.83 463.34 1089.42 462.934 1088.92 462.934L1024.8 462.853L1024.8 462.842Z" fill-rule="nonzero" fill="#E5C09F"/>
		<path d="M1024.8 467.335L1024.8 469.165L1088.91 469.246C1089.41 469.246 1089.83 468.84 1089.83 468.343C1089.83 467.833 1089.42 467.428 1088.92 467.428L1024.8 467.347L1024.8 467.335Z" fill-rule="nonzero" fill="#E5C09F"/>
		<path d="M971.634 772.538L1050.27 749.723L1060.56 785.202C1062.15 790.696 1058.99 796.45 1053.49 798.044L994.781 815.08C989.287 816.674 983.533 813.508 981.939 808.014L971.645 772.535L971.634 772.538Z" fill-rule="nonzero" fill="#FBB416"/>
		<path d="M987.628 778.263L1041.18 763.127" stroke="#FFFFFF" stroke-linejoin="round" stroke-linecap="round"/>
		<path d="M1035.71 773.897L1043.33 771.743" stroke="#FFFFFF" stroke-linejoin="round" stroke-linecap="round"/>
		<path d="M989.782 786.867L1027.04 776.34" stroke="#FFFFFF" stroke-linejoin="round" stroke-linecap="round"/>
		<path d="M993.279 797.104L1015.87 790.306" stroke="#FFFFFF" stroke-linejoin="round" stroke-linecap="round"/>
		<path d="M964.938 759.837L1049.12 735.412L1053.04 748.925L968.858 773.35L964.938 759.837Z" fill-rule="evenodd" fill="#F8A81B"/>
		<path d="M968.879 773.283C970.593 768.083 972.342 762.316 974.056 757.116L980.251 755.31C978.108 760.787 976.661 765.721 975.26 771.43C975.26 771.43 970.743 772.762 968.879 773.283Z" fill-rule="nonzero" fill="#FFFFFF"/>
		<path d="M983.679 768.952C985.393 763.752 987.118 758.054 988.832 752.854L994.946 751.06C992.804 756.537 991.264 761.471 989.862 767.168L983.667 768.952L983.679 768.952Z" fill-rule="nonzero" fill="#FFFFFF"/>
		<path d="M1000.7 764.076C1002.42 758.877 1004.17 753.098 1005.88 747.898L1012.5 745.953C1010.36 751.43 1008.66 756.433 1007.26 762.131L1000.69 764.088L1000.7 764.076Z" fill-rule="nonzero" fill="#FFFFFF"/>
		<path d="M1017.64 759.143C1019.36 753.943 1021.14 748.072 1022.86 742.872C1022.86 742.872 1028.97 741.286 1029.02 741.135C1026.87 746.613 1025.2 751.627 1023.79 757.336C1023.79 757.336 1017.63 759.073 1017.63 759.155L1017.64 759.143Z" fill-rule="nonzero" fill="#FFFFFF"/>
		<path d="M1034.02 754.372C1035.73 749.172 1037.5 743.405 1039.22 738.205L1045.38 736.41L1040.13 752.588L1034.03 754.372L1034.02 754.372Z" fill-rule="nonzero" fill="#FFFFFF"/>
		<path d="M957.083 748.62L1029.29 698.922L1037.26 710.512L965.061 760.21L957.083 748.62Z" fill-rule="evenodd" fill="#F8A81B"/>
		<path d="M965.046 760.185C965.046 754.708 964.884 748.686 964.872 743.208L970.188 739.549C969.875 745.42 970.061 750.562 970.523 756.422C970.523 756.422 966.655 759.108 965.046 760.185Z" fill-rule="nonzero" fill="#FFFFFF"/>
		<path d="M977.738 751.419C977.738 745.941 977.576 739.989 977.564 734.511L982.811 730.875C982.498 736.746 982.591 741.911 983.054 747.771L977.738 751.407L977.738 751.419Z" fill-rule="nonzero" fill="#FFFFFF"/>
		<path d="M992.353 741.425C992.353 735.947 992.179 729.914 992.179 724.436L997.854 720.499C997.54 726.37 997.506 731.651 997.969 737.51L992.353 741.425Z" fill-rule="nonzero" fill="#FFFFFF"/>
		<path d="M1006.89 731.407C1006.89 725.93 1006.72 719.792 1006.71 714.314C1006.71 714.314 1012.02 710.875 1012.02 710.724C1011.7 716.596 1011.7 721.888 1012.16 727.748C1012.16 727.748 1006.86 731.338 1006.89 731.407Z" fill-rule="nonzero" fill="#FFFFFF"/>
		<path d="M1020.93 721.726C1020.93 716.248 1020.78 710.226 1020.77 704.749L1026.05 701.101L1026.17 718.113L1020.93 721.726Z" fill-rule="nonzero" fill="#FFFFFF"/>
		<path d="M987.153 805.639C990.106 808.835 994.831 810.294 999.069 809.31" stroke="#FFFFFF" stroke-linejoin="round" stroke-linecap="round"/>
		<path d="M1007.89 805.79L1028.12 799.895" stroke="#FFFFFF" stroke-linejoin="round" stroke-linecap="round"/>
		<path d="M981.352 569.615L1086.69 569.615C1090.42 569.615 1093.44 572.637 1093.44 576.366L1093.44 650.32C1093.44 655.635 1089.13 659.943 1083.82 659.943L984.223 659.943C978.907 659.943 974.6 655.635 974.6 650.32L974.6 576.366C974.6 572.637 977.622 569.615 981.352 569.615Z" fill-rule="nonzero" fill="#FFFFFF"/>
		<path d="M981.351 569.615L1086.69 569.615C1090.42 569.615 1093.44 572.637 1093.44 576.366L1093.44 580.408L974.588 580.408L974.588 576.366C974.588 572.637 977.61 569.615 981.339 569.615L981.351 569.615Z" fill-rule="nonzero" fill="#3073ED"/>
		<path d="M982.637 575.011C982.637 575.787 982.011 576.413 981.235 576.413C980.459 576.413 979.834 575.787 979.834 575.011C979.834 574.235 980.459 573.61 981.235 573.61C982.011 573.61 982.637 574.235 982.637 575.011Z" fill-rule="nonzero" fill="#010101"/>
		<path d="M989.713 575.011C989.713 575.785 989.085 576.413 988.312 576.413C987.537 576.413 986.91 575.785 986.91 575.011C986.91 574.237 987.537 573.61 988.312 573.61C989.085 573.61 989.713 574.237 989.713 575.011Z" fill-rule="evenodd" fill="#FFFFFF"/>
		<path d="M997.391 575.011C997.391 575.785 996.763 576.413 995.989 576.413C995.215 576.413 994.588 575.785 994.588 575.011C994.588 574.237 995.215 573.61 995.989 573.61C996.763 573.61 997.391 574.237 997.391 575.011Z" fill-rule="evenodd" fill="#C7B7DA"/>
		<path d="M979.695 645.815L986.644 645.815L986.644 652.764L979.695 652.764L979.695 645.815Z" fill-rule="evenodd" fill="#3073ED"/>
		<path d="M982.324 650.482L982.324 648.108" stroke="#FFFFFF" stroke-width="0.640000"/>
		<path d="M984.015 650.482L984.015 648.108" stroke="#FFFFFF" stroke-width="0.640000"/>
		<path d="M988.832 647.599L1084.41 647.599L1084.41 651.42L988.832 651.42L988.832 647.599Z" fill-rule="evenodd" fill="#E5DBED"/>
		<path d="M988.832 647.599L1028.54 647.599L1028.54 651.42L988.832 651.42L988.832 647.599Z" fill-rule="evenodd" fill="#3073ED"/>
		<path d="M1090.89 591.201L1090.89 622.341" stroke="#9A89C1" stroke-linejoin="round" stroke-linecap="round"/>
		<path d="M1090.89 584.82L1090.89 587.935" stroke="#9A89C1" stroke-linejoin="round" stroke-linecap="round"/>
		<path d="M992.388 657.905L1029.72 657.905" stroke="#9A89C1" stroke-linejoin="round" stroke-linecap="round"/>
		<path d="M1051.98 608.915C1055.71 618.031 1051.34 628.444 1042.22 632.172C1033.11 635.9 1022.69 631.531 1018.97 622.415C1015.24 613.298 1019.61 602.885 1028.72 599.157C1037.84 595.429 1048.25 599.798 1051.98 608.915Z" fill-rule="evenodd" fill="#3073ED"/>
		<path d="M1030.05 622.55L1030.05 608.792L1042.91 614.42L1030.05 622.55Z" fill-rule="nonzero" fill="#FFFFFF"/>
		<path d="M1022.78 608.143C1024.89 603.337 1030.26 600.164 1035.49 600.604" stroke="#9A89C1" stroke-linejoin="round" stroke-linecap="round"/>
		<g opacity="0.060000">
			<path d="M1044.27 1049.17C1044.27 1065.08 913.809 1077.98 752.877 1077.98C591.946 1077.98 461.486 1065.08 461.486 1049.17C461.486 1033.25 591.946 1020.35 752.877 1020.35C913.809 1020.35 1044.27 1033.25 1044.27 1049.17Z" fill-rule="evenodd" fill="#000000"/>
		</g>
		<path d="M469.072 802.825L503.096 1056.43L509.28 1056.43L489.176 801.424L469.072 802.825Z" fill-rule="nonzero" fill="#6E4945"/>
		<path d="M603.592 802.825L637.615 1056.43L643.8 1056.43L623.695 801.424L603.592 802.825Z" fill-rule="nonzero" fill="#6E4945"/>
		<path d="M811.695 867.167L815.263 1036.44L801.169 1036.44L805.407 867.167L811.695 867.167Z" fill-rule="nonzero" fill="#3D2027"/>
		<path d="M809.078 1020.89C811.672 1021.76 878.168 1048.52 878.168 1048.52L878.168 1057.16L809.078 1057.16L809.078 1020.89Z" fill-rule="nonzero" fill="#6E4945"/>
		<path d="M808.222 1020.89C805.628 1021.76 739.132 1048.52 739.132 1048.52L739.132 1057.16L808.222 1057.16L808.222 1020.89Z" fill-rule="nonzero" fill="#6E4945"/>
		<path d="M809.078 1020.89C807.688 1021.76 771.939 1048.52 771.939 1048.52L771.939 1057.16L809.078 1057.16L809.078 1020.89Z" fill-rule="nonzero" fill="#3D2027"/>
		<path d="M682.989 834.127C687.83 796.537 735.229 807.955 750.354 780.776C757.812 767.377 771.627 698.808 788.257 680.812C795.008 673.505 785.269 725.339 785.269 725.339C780.058 753.677 788.037 784.701 783.104 813.85C780.22 830.873 774.244 844.955 762.143 855.934C753.55 863.739 741.691 869.228 734.673 878.944C728.918 886.912 727.713 897.149 725.107 905.834C665.734 914.543 679.017 865.071 683.001 834.116L682.989 834.127Z" fill-rule="nonzero" fill="#FBB416"/>
		<path d="M697.673 847.526C715.947 831.615 751.21 840.126 757.487 821.713C764.354 801.528 762.015 656.11 827.469 651.953C827.585 651.953 827.7 651.884 827.816 651.86C855.771 645.144 891.359 687.818 923.183 804.574C928.915 825.593 936.141 853.108 927.953 874.382C921.851 890.235 909.691 900.345 895.019 906.877L705.039 906.877C696.214 906.877 689.058 898.944 689.058 889.17C689.058 883.125 685.606 858.053 697.696 847.526L697.673 847.526Z" fill-rule="nonzero" fill="#DC8827"/>
		<path d="M619.654 786.485C619.654 788.697 621.762 790.48 624.356 790.48L768.848 790.48C771.441 790.48 773.549 788.685 773.549 786.485C773.549 784.273 771.441 782.489 768.848 782.489L624.356 782.489C621.762 782.489 619.654 784.284 619.654 786.485Z" fill-rule="nonzero" fill="#DDDDDD"/>
		<path d="M589.834 786.821C590.297 788.893 592.347 790.561 594.408 790.561L710.84 790.561C712.913 790.561 714.141 788.882 713.596 786.821L693.006 708.953C692.461 706.88 690.389 705.212 688.373 705.212L575.277 705.212C573.273 705.212 572.012 706.891 572.475 708.953L589.834 786.821Z" fill-rule="nonzero" fill="#DDDDDD"/>
		<path d="M587.345 786.82C587.808 788.893 589.846 790.561 591.919 790.561L708.351 790.561C710.423 790.561 711.65 788.882 711.106 786.82L690.574 708.953C690.03 706.88 687.957 705.212 685.953 705.212L572.857 705.212C570.854 705.212 569.592 706.891 570.055 708.953L587.356 786.82L587.345 786.82Z" fill-rule="nonzero" fill="#DDDDDD"/>
		<path d="M636.075 747.887C636.573 749.959 638.635 751.639 640.685 751.639C642.734 751.639 643.974 749.959 643.464 747.887C642.954 745.814 640.894 744.134 638.855 744.134C636.816 744.134 635.566 745.814 636.075 747.887Z" fill-rule="nonzero" fill="#DDDDDD"/>
		<path d="M674.939 769.809L674.233 764.632L678.31 764.945L677.082 760.174L682.467 760.59L683.694 765.362L687.03 765.616L685.803 760.845L691.188 761.262L692.415 766.033L697.128 766.392L697.835 771.569L693.758 771.256L694.858 775.645L699.571 776.004L700.278 781.181L696.202 780.868L697.43 785.639L692.044 785.222L690.816 780.451L687.481 780.196L688.709 784.968L683.324 784.551L682.097 779.78L677.384 779.421L676.677 774.244L680.753 774.557L679.653 770.168L674.939 769.809ZM686.149 774.962L689.485 775.217L688.385 770.828L685.05 770.573L686.149 774.962Z" fill-rule="nonzero" fill="#409EFF"/>
		<path d="M581.855 722.942C583.257 729.23 588.966 734.719 594.595 735.206C600.223 735.692 603.662 731.002 602.261 724.725C600.859 718.437 595.15 712.948 589.522 712.462C583.894 711.975 580.454 716.665 581.855 722.942Z" fill-rule="nonzero" fill="#FBB416"/>
		<path d="M593.263 721.807C593.54 723.069 594.166 724.112 594.652 724.158C595.139 724.204 595.312 723.22 595.034 721.958C594.757 720.695 594.131 719.653 593.645 719.607C593.158 719.56 592.984 720.545 593.263 721.807Z" fill-rule="nonzero" fill="#28100C"/>
		<path d="M587.936 721.344C588.213 722.606 588.839 723.648 589.325 723.695C589.812 723.741 589.985 722.757 589.707 721.494C589.43 720.232 588.804 719.19 588.317 719.144C587.831 719.097 587.657 720.082 587.936 721.344Z" fill-rule="nonzero" fill="#28100C"/>
		<path d="M593.204 729.369C597.594 729.751 597.501 724.945 597.501 724.899C597.501 724.633 597.281 724.355 597.026 724.285C596.771 724.204 596.574 724.355 596.586 724.621C596.586 724.795 596.644 728.709 592.984 728.385C589.325 728.061 587.588 723.996 587.519 723.822C587.402 723.556 587.137 723.359 586.904 723.405C586.685 723.44 586.58 723.695 586.696 723.961C586.72 724.007 588.815 728.987 593.204 729.369Z" fill-rule="nonzero" fill="#28100C"/>
		<path d="M646.637 751.407C647.448 757.429 643.325 761.864 637.431 761.308C631.536 760.753 626.104 755.426 625.294 749.404C624.483 743.382 628.606 738.946 634.501 739.502C640.396 740.058 645.826 745.385 646.637 751.407Z" fill-rule="nonzero" fill="#FFFFFF"/>
		<path d="M729.659 549.395C729.659 549.395 733.747 545.377 735.797 541.115C737.835 536.853 739.792 532.302 741.008 529.65C742.467 526.454 739.132 526.384 736.92 528.701C733.573 532.221 733.168 534.723 733.168 534.723C733.168 534.723 737.487 516.414 736.642 511.422C735.878 506.871 732.982 516.854 730.146 524.972C730.146 524.972 731.245 506.558 728.697 504.729C725.351 502.332 724.089 524.636 724.089 524.636C724.089 524.636 722.571 508.052 720.626 508.504C718.438 509.014 717.916 526.188 717.916 526.188C717.916 526.188 715.866 514.885 714.686 515.649C712.334 517.166 711.721 541.601 718.46 550.518C718.46 550.518 727.586 551.132 729.671 549.384L729.659 549.395Z" fill-rule="nonzero" fill="#F9AE83"/>
		<path d="M736.397 585.515C733.282 565.527 730.584 548.735 730.584 548.735C726.52 545.55 721.575 546.095 716.618 546.674C714.372 580.836 718.437 607.923 723.752 628.491C732.032 650.853 774.579 698.113 774.579 698.113C789.391 694.21 785.615 672.948 785.615 672.948C763.184 644.495 741.864 618.937 741.528 618.543C741.007 615.184 739.05 602.562 736.397 585.526L736.397 585.515Z" fill-rule="nonzero" fill="#409EFF"/>
		<path d="M1001.49 802.825L967.466 1056.43L961.282 1056.43L981.386 801.424L1001.49 802.825Z" fill-rule="nonzero" fill="#6E4945"/>
		<path d="M736.364 883.912C736.295 862.141 741.923 847.526 741.923 847.526C778.506 845.268 838.945 847.769 838.945 847.769C839.026 847.978 839.107 848.186 839.177 848.406C839.177 848.406 837.196 867.294 833.745 883.16C798.158 904.236 768.836 903.599 736.364 883.912Z" fill-rule="nonzero" fill="#1E1E1E"/>
		<path d="M894.983 906.888L830.341 906.888C830.422 906.645 830.503 906.413 830.584 906.158C833.468 896.037 831.719 881.121 831.835 870.143C832.066 847.132 818.991 815.969 842.755 805.28C859.015 797.973 898.759 806.785 900.056 785.164C901.388 762.86 888.521 724.47 879.28 704.1C868.893 681.194 851.741 653.227 827.457 651.953C827.573 651.918 827.688 651.872 827.805 651.86C859.42 648.884 891.348 687.818 923.171 804.573C928.903 825.592 936.129 853.108 927.942 874.381C921.839 890.235 909.68 900.345 895.007 906.876L894.983 906.888Z" fill-rule="nonzero" fill="#FBB416"/>
		<path d="M780.034 889.992C780.034 889.992 717.58 903.993 696.225 910.061C696.225 910.061 695.183 941.167 691.848 963.158C688.93 982.359 684.482 1003.38 684.482 1003.38L668.976 1005.55C668.976 1005.55 664.216 914.497 666.868 901.179C669.509 887.85 734.418 845.488 796.224 850.155L780.022 889.992L780.034 889.992Z" fill-rule="nonzero" fill="#1E1E1E"/>
		<path d="M643.476 1046.04L691.246 1033.52C693.504 1032.93 694.905 1030.77 694.628 1028.54C694.593 1028.23 694.523 1027.92 694.407 1027.6L685.896 1003.03C685.896 1003.03 683.672 1002.64 680.708 1002.71C678.959 1002.75 677.245 1001.92 676.318 1000.42C676.249 1000.32 676.191 1000.2 676.122 1000.09C673.76 995.549 666.395 995.839 666.348 1000.89C666.348 1001.54 666.348 1002.17 666.383 1002.78C666.383 1002.93 666.395 1003.08 666.405 1003.22C666.464 1004.28 666.557 1005.25 666.672 1006.1C666.672 1006.12 666.672 1006.13 666.672 1006.16C666.962 1008.3 667.332 1009.63 667.332 1009.63C666.915 1010.6 666.51 1011.55 666.116 1012.48C665.919 1012.94 665.723 1013.41 665.537 1013.86C665.12 1014.84 664.727 1015.79 664.321 1016.72C664.136 1017.15 663.95 1017.58 663.766 1017.98C663.325 1018.99 662.874 1019.94 662.41 1020.84C662.202 1021.25 661.993 1021.65 661.773 1022.05C659.99 1025.28 657.963 1027.7 655.138 1028.88C650.146 1030.95 641.832 1033.73 639.735 1042.4C639.689 1042.59 639.666 1042.76 639.654 1042.94C639.539 1044.93 641.438 1046.56 643.465 1046.03L643.476 1046.04Z" fill-rule="nonzero" fill="#DE9E26"/>
		<path d="M643.476 1046.04L691.245 1033.52C693.504 1032.93 694.904 1030.77 694.627 1028.54L639.665 1042.94C639.55 1044.93 641.448 1046.56 643.476 1046.03L643.476 1046.04Z" fill-rule="nonzero" fill="#BE812B"/>
		<path d="M665.537 1013.86C666.302 1014.53 667.691 1015.21 670.204 1015.53C670.633 1015.58 671.096 1015.63 671.594 1015.65L671.675 1014.3C671.188 1014.26 670.736 1014.23 670.331 1014.17C667.448 1013.8 666.452 1012.95 666.128 1012.47C665.931 1012.93 665.734 1013.4 665.549 1013.85L665.537 1013.86Z" fill-rule="nonzero" fill="#FFFFFF"/>
		<path d="M670.157 1015.36C670.377 1016.19 671.211 1016.67 672.021 1016.45C672.844 1016.23 673.33 1015.4 673.11 1014.59C672.891 1013.77 672.057 1013.28 671.246 1013.5C670.424 1013.72 669.938 1014.55 670.157 1015.36Z" fill-rule="nonzero" fill="#FFFFFF"/>
		<path d="M663.765 1017.98C664.552 1018.47 665.757 1018.93 667.574 1019.19C668.084 1019.27 668.629 1019.31 669.242 1019.36L669.323 1018C668.756 1017.97 668.246 1017.92 667.795 1017.85C665.941 1017.6 664.899 1017.14 664.32 1016.72C664.135 1017.15 663.95 1017.58 663.765 1017.98Z" fill-rule="nonzero" fill="#FFFFFF"/>
		<path d="M667.563 1019.13C667.783 1019.95 668.617 1020.44 669.428 1020.22C670.25 1020 670.736 1019.16 670.517 1018.35C670.297 1017.53 669.463 1017.04 668.652 1017.26C667.83 1017.48 667.344 1018.32 667.563 1019.13Z" fill-rule="nonzero" fill="#FFFFFF"/>
		<path d="M661.773 1022.05C662.561 1022.52 663.73 1022.94 665.456 1023.18C665.966 1023.26 666.533 1023.32 667.146 1023.35L667.228 1022C666.66 1021.96 666.151 1021.91 665.688 1021.85C664.031 1021.62 663.013 1021.22 662.41 1020.84C662.202 1021.25 661.993 1021.65 661.773 1022.05Z" fill-rule="nonzero" fill="#FFFFFF"/>
		<path d="M665.444 1023.13C665.664 1023.96 666.498 1024.44 667.309 1024.22C668.131 1024 668.617 1023.17 668.397 1022.36C668.178 1021.54 667.344 1021.05 666.533 1021.27C665.711 1021.49 665.225 1022.32 665.444 1023.13Z" fill-rule="nonzero" fill="#FFFFFF"/>
		<path d="M666.672 1006.1C668.849 1005.5 670.991 1005.23 670.991 1005.23L670.343 1002.85C668.918 1002.71 667.54 1002.91 666.417 1003.22C666.475 1004.28 666.567 1005.25 666.684 1006.1L666.672 1006.1Z" fill-rule="nonzero" fill="#FFFFFF"/>
		<path d="M715.438 940.344L649.637 1028.13L661.564 1038.71C692.612 1009.3 721.842 985.324 736.329 958.885C763.382 938.596 821.227 883.16 821.227 883.16C815.818 870.907 799.768 849.101 799.768 849.101C770.515 872.308 715.438 940.344 715.438 940.344Z" fill-rule="nonzero" fill="#1E1E1E"/>
		<path d="M604.819 1022.81L643.834 1057.44C645.676 1059.07 648.408 1059.03 650.192 1057.48C650.446 1057.26 650.679 1057.02 650.887 1056.74L667.481 1034.84C667.481 1034.84 666.521 1032.65 664.726 1030.09C663.66 1028.58 663.394 1026.6 664.158 1024.91C664.216 1024.78 664.274 1024.66 664.344 1024.54C666.949 1019.8 662.375 1013.5 657.904 1016.42C657.325 1016.8 656.781 1017.17 656.26 1017.55C656.133 1017.65 656.006 1017.74 655.878 1017.83C654.975 1018.51 654.176 1019.16 653.492 1019.75C653.48 1019.75 653.47 1019.78 653.446 1019.79C651.732 1021.3 650.782 1022.4 650.782 1022.4C649.683 1022.6 648.617 1022.81 647.563 1023.01C647.03 1023.1 646.521 1023.2 646.012 1023.31C644.911 1023.52 643.834 1023.72 642.792 1023.91C642.306 1024 641.831 1024.08 641.356 1024.17C640.21 1024.36 639.109 1024.54 638.044 1024.65C637.558 1024.71 637.083 1024.77 636.608 1024.8C632.717 1025.14 629.405 1024.78 626.718 1022.98C621.97 1019.81 614.651 1014.15 605.804 1017.39C605.618 1017.46 605.444 1017.54 605.282 1017.63C603.464 1018.7 603.14 1021.33 604.796 1022.8L604.819 1022.81Z" fill-rule="nonzero" fill="#DE9E26"/>
		<path d="M604.831 1022.81L643.847 1057.44C645.688 1059.07 648.421 1059.03 650.204 1057.48L605.317 1017.65C603.499 1018.71 603.175 1021.34 604.831 1022.81Z" fill-rule="nonzero" fill="#BE812B"/>
		<path d="M646.046 1023.32C645.907 1024.39 646.116 1026.01 647.32 1028.39C647.517 1028.8 647.749 1029.24 648.015 1029.69L649.254 1028.97C648.988 1028.52 648.768 1028.1 648.571 1027.72C647.204 1024.96 647.366 1023.6 647.599 1023.03C647.065 1023.12 646.556 1023.23 646.046 1023.33L646.046 1023.32Z" fill-rule="nonzero" fill="#FFFFFF"/>
		<path d="M647.425 1028.25C646.834 1028.92 646.892 1029.94 647.563 1030.53C648.235 1031.12 649.254 1031.07 649.845 1030.4C650.436 1029.72 650.377 1028.7 649.706 1028.11C649.034 1027.52 648.015 1027.58 647.425 1028.25Z" fill-rule="nonzero" fill="#FFFFFF"/>
		<path d="M641.38 1024.19C641.415 1025.17 641.716 1026.49 642.562 1028.24C642.793 1028.73 643.07 1029.25 643.384 1029.8L644.622 1029.09C644.321 1028.58 644.066 1028.09 643.858 1027.65C642.989 1025.87 642.793 1024.69 642.815 1023.93C642.329 1024.03 641.854 1024.11 641.38 1024.19Z" fill-rule="nonzero" fill="#FFFFFF"/>
		<path d="M642.596 1028.18C642.005 1028.86 642.062 1029.87 642.734 1030.46C643.406 1031.06 644.425 1031 645.016 1030.33C645.606 1029.65 645.548 1028.64 644.877 1028.04C644.205 1027.45 643.186 1027.51 642.596 1028.18Z" fill-rule="nonzero" fill="#FFFFFF"/>
		<path d="M636.644 1024.81C636.689 1025.77 637.002 1027.05 637.802 1028.72C638.033 1029.21 638.311 1029.74 638.636 1030.3L639.874 1029.57C639.573 1029.05 639.318 1028.58 639.11 1028.13C638.334 1026.53 638.091 1025.42 638.067 1024.66C637.581 1024.72 637.106 1024.78 636.632 1024.81L636.644 1024.81Z" fill-rule="nonzero" fill="#FFFFFF"/>
		<path d="M637.836 1028.68C637.246 1029.35 637.304 1030.37 637.976 1030.96C638.647 1031.55 639.666 1031.5 640.257 1030.82C640.848 1030.15 640.789 1029.13 640.118 1028.54C639.446 1027.95 638.427 1028.01 637.836 1028.68Z" fill-rule="nonzero" fill="#FFFFFF"/>
		<path d="M653.527 1019.76C655.334 1021.33 656.828 1023.04 656.828 1023.04L658.542 1021.07C657.824 1019.73 656.84 1018.65 655.913 1017.84C655.01 1018.53 654.211 1019.17 653.527 1019.76Z" fill-rule="nonzero" fill="#FFFFFF"/>
		<path d="M880.183 1037.54C880.449 1038.68 880.75 1039.79 881.109 1040.86C883.483 1048.15 887.85 1053.96 893.778 1056.37C916.233 1065.48 937.333 1062.33 980.286 1061.34C1023.23 1060.34 1055.12 1048.97 1051.14 1013.61C1050.82 1010.82 1050.28 1008.22 1049.55 1005.79C1048.59 1002.59 1047.3 999.695 1045.77 997.078C1043.98 993.986 1041.85 991.288 1039.52 988.925C1027.46 976.684 1009.32 972.689 993.059 978.259C977.009 983.76 948.636 986.424 919.094 987.014C887.352 987.651 875.493 1017.31 880.183 1037.55L880.183 1037.54Z" fill-rule="nonzero" fill="#FBB416"/>
		<path d="M880.184 1037.54C880.45 1038.68 880.751 1039.79 881.11 1040.86C888.719 1047.5 903.066 1051.69 923.831 1053.35C930.362 1053.87 937.542 1054.12 945.267 1054.12C963.136 1054.12 983.969 1052.73 1006.72 1050.01C1025.97 1047.7 1038.99 1040.92 1045.43 1029.85C1050.22 1021.62 1050.46 1012.63 1049.55 1005.76C1048.59 1002.57 1047.3 999.672 1045.77 997.055C1047.44 1002.18 1051.1 1016.71 1043.95 1028.99C1037.78 1039.57 1025.2 1046.06 1006.52 1048.31C939.024 1056.41 893.073 1052.48 880.184 1037.53L880.184 1037.54Z" fill-rule="nonzero" fill="#F8A81B"/>
		<path d="M1008.51 993.789C1021.7 994.854 1031.45 1006.89 1029.29 1019.95C1029.25 1020.2 1029.2 1020.46 1029.16 1020.71C1026.31 1034.95 1007.19 1034.52 954.044 1035.02C912.435 1035.41 891.034 1020.52 902.104 1002.13C910.906 987.501 980.413 991.531 1008.51 993.801L1008.51 993.789Z" fill-rule="nonzero" fill="#F8A81B"/>
		<path d="M908.15 1004.56C927.502 1028.66 1006.48 1030.02 1016.85 1011.97C1021.9 1003.18 1020.51 991.924 1017.75 982.683C1017.46 981.71 1017.16 980.749 1016.85 979.834C1014.01 971.519 1010.43 965.44 1010.43 965.44C1010.43 965.44 1010.75 974.032 981.63 970.94C978.294 970.593 974.508 970.442 970.454 970.489C969.701 970.489 968.938 970.512 968.161 970.535C936.743 971.473 891.429 983.725 908.162 1004.56L908.15 1004.56Z" fill-rule="nonzero" fill="#28100C"/>
		<path d="M971.611 990.187C976.174 995.271 984.084 997.194 994.507 995.734C994.738 995.7 994.97 995.665 995.213 995.63C1008.35 993.604 1014.74 987.362 1017.76 982.672C1017.47 981.699 1017.17 980.738 1016.86 979.823C1014.62 984.131 1008.74 991.484 994.205 993.523C984.559 994.878 977.32 993.21 973.279 988.693C969.643 984.629 968.67 978.34 970.465 970.477C969.712 970.477 968.948 970.5 968.172 970.524C966.389 978.885 967.57 985.648 971.635 990.176L971.611 990.187Z" fill-rule="nonzero" fill="#FBAB47"/>
		<path d="M919.094 987.014C919.094 987.014 900.554 985.648 898.354 976.291C896.153 966.933 938.688 975.144 943.379 955.874C948.069 936.604 929.262 921.236 923.159 926.876C915.921 933.558 931.775 936.395 932.62 946.308C933.327 954.542 928.22 962.128 912.389 963.262C896.559 964.397 889.471 966.852 889.541 974.218C889.61 982.231 902.441 990.488 910.247 991.01C918.04 991.531 919.105 987.026 919.105 987.026L919.094 987.014Z" fill-rule="nonzero" fill="#28100C"/>
		<path d="M1000.45 958.352C1000.45 958.352 1005.95 951.195 1014.91 946.436C1016.21 945.741 1017.76 946.783 1017.61 948.254L1015.92 964.664C1015.92 964.664 1003.05 965.752 1000.45 958.352Z" fill-rule="nonzero" fill="#28100C"/>
		<path d="M1012.77 962.66C1013.5 958.943 1013.67 955.029 1014.53 950.651C1014.53 950.651 1004.86 956.407 1004.28 959.58C1004.28 959.58 1009.62 963.622 1012.76 962.66L1012.77 962.66Z" fill-rule="nonzero" fill="#5A4C54"/>
		<path d="M983.656 959.013C983.656 959.013 976.105 954.461 966.192 953.211C964.571 953.002 963.378 954.716 964.119 956.175L970.895 969.678C970.895 969.678 983.923 966.853 983.656 959.013Z" fill-rule="nonzero" fill="#28100C"/>
		<path d="M973.755 967.513C971.728 964.316 970.13 960.738 967.744 956.963C967.744 956.963 978.85 958.816 980.541 961.56C980.541 961.56 977.043 967.269 973.766 967.513L973.755 967.513Z" fill-rule="nonzero" fill="#5A4C54"/>
		<path d="M1007.63 958.63C1007.63 958.63 1019.08 960.379 1018.21 973.801C1017.36 987.211 1004.29 988.647 1004.29 988.647C1004.29 988.647 1001.96 992.967 993.894 994.704C988.729 995.816 981.039 995.468 979.094 991.67C979.094 991.67 967.884 987.559 968.011 977.565C968.149 966.494 981.502 952.898 1007.63 958.63Z" fill-rule="nonzero" fill="#28100C"/>
		<path d="M1019.27 990.35C1019.27 990.35 1014.6 1009.39 1010.69 1013.33C1006.77 1017.26 1002.52 1019.41 997.066 1020.07C988.254 1021.13 989.887 1027 992.516 1029.03C995.561 1031.37 1000.95 1030.04 1009.04 1030.04C1016.04 1030.04 1022.62 1028.64 1024.99 1024.05C1027.35 1019.45 1027.19 1005.84 1024.67 998.19C1023.12 993.465 1020.95 990.998 1019.25 990.35L1019.27 990.35Z" fill-rule="nonzero" fill="#28100C"/>
		<path d="M960.101 991.6C960.101 991.6 964.768 1010.64 968.683 1014.58C972.597 1018.51 976.87 1020.46 982.301 1021.32C988.937 1022.37 988.323 1028.64 986.853 1030.28C984.293 1033.14 978.422 1031.29 970.326 1031.29C963.332 1031.29 955.063 1028.48 952.701 1023.89C950.339 1019.29 952.18 1007.08 954.692 999.44C956.244 994.715 958.422 992.249 960.112 991.6L960.101 991.6Z" fill-rule="nonzero" fill="#28100C"/>
		<path d="M920.993 987.813C920.993 987.813 908.671 984.86 904.699 994.148C898.457 1008.75 903.448 1017.1 920.09 1019.42C936.73 1021.73 955.653 1024.88 941.352 1013.05C927.05 1001.21 920.993 987.813 920.993 987.813Z" fill-rule="nonzero" fill="#28100C"/>
		<path d="M987.315 980.309C987.315 980.309 992.283 979.776 993.615 980.39C995.839 981.409 992.26 985.555 989.99 985.914C987.709 986.262 985.497 983.598 985.531 981.861C985.566 980.124 987.327 980.309 987.327 980.309L987.315 980.309Z" fill-rule="nonzero" fill="#5A4C54"/>
		<path d="M984.756 976.476C984.999 976.325 985.254 976.627 985.08 976.847C984.096 978.028 982.266 979.58 979.8 979.058C977.761 978.63 976.985 977.194 976.707 975.955C976.649 975.677 977.02 975.526 977.159 975.77C977.68 976.696 978.711 977.634 980.691 977.761C982.196 977.854 983.726 977.113 984.744 976.476L984.756 976.476Z" fill-rule="nonzero" fill="#5A4C54"/>
		<path d="M1004.04 975.457C1004.25 975.272 1004.56 975.515 1004.42 975.758C1003.67 977.101 1002.16 978.966 999.638 978.908C997.553 978.862 996.534 977.599 996.036 976.418C995.92 976.152 996.268 975.932 996.453 976.152C997.136 976.962 998.317 977.703 1000.29 977.46C1001.78 977.275 1003.16 976.267 1004.04 975.457Z" fill-rule="nonzero" fill="#5A4C54"/>
		<path d="M891.66 810.074L873.583 1065.3L867.41 1065.69L871.51 809.935L891.66 810.074Z" fill-rule="nonzero" fill="#6E4945"/>
		<path d="M778.888 577.409C778.888 577.409 771.163 582.504 773.931 596.343C776.698 610.193 782.049 611.664 782.049 611.664C782.049 611.664 790.155 581.01 778.888 577.397L778.888 577.409Z" fill-rule="nonzero" fill="#28120E"/>
		<path d="M810.85 642.04L810.306 659.561L810.051 667.598C819.442 675.913 836.675 667.112 836.675 667.112L840.682 641.415C836.304 637.871 824.098 639.434 816.732 640.801C813.259 641.449 810.861 642.04 810.861 642.04L810.85 642.04Z" fill-rule="nonzero" fill="#F9AE83"/>
		<path d="M810.85 642.04L810.306 659.561C822.338 657.871 833.652 642.387 833.652 642.387L816.732 640.789C813.259 641.438 810.861 642.028 810.861 642.028L810.85 642.04Z" fill-rule="nonzero" fill="#F58A69"/>
		<path d="M780.439 584.461C780.439 584.461 761.552 575.672 767.087 560.165C772.623 544.659 795.217 551.792 815.541 552.568C848.256 553.807 858.505 570.831 857.671 588.549C856.837 606.267 857.022 630.031 848.997 638.89C840.972 647.749 835.482 635.23 831.325 624.148C827.167 613.065 801.54 579.134 780.428 584.473L780.439 584.461Z" fill-rule="nonzero" fill="#28120E"/>
		<path d="M778.737 599.527C778.737 600.13 778.761 600.732 778.772 601.346C779.107 612.347 781.007 625.723 782.872 636.597C784.852 648.143 795.98 655.775 807.457 653.458C821.284 650.667 838.319 646.429 846.102 641.322C848.464 639.77 849.97 638.137 850.271 636.435C850.966 632.474 851.348 627.055 851.533 621.172C852.077 603.326 850.78 581.068 850.78 581.068C834.162 560.431 787.863 568.491 780.811 583.581C779.2 587.032 778.645 592.764 778.737 599.527Z" fill-rule="nonzero" fill="#F9AE83"/>
		<path d="M788.963 631.502C788.963 631.502 789.171 632.023 789.646 632.787C790.376 633.968 791.73 635.717 793.885 636.875C795.911 637.964 798.645 638.543 802.234 637.639C805.419 636.84 807.469 635.288 808.777 633.505C810.618 630.992 810.989 628.016 810.989 625.989C810.989 624.588 810.804 623.638 810.804 623.638C802.258 630.1 788.975 631.502 788.975 631.502L788.963 631.502Z" fill-rule="nonzero" fill="#921A1D"/>
		<path d="M793.896 636.875C795.923 637.964 798.656 638.543 802.246 637.639C805.431 636.84 807.48 635.289 808.789 633.505C806.797 632.694 803.624 632.162 799.988 633.32C796.896 634.304 795.355 635.694 793.896 636.875Z" fill-rule="nonzero" fill="#F15D67"/>
		<path d="M788.963 631.502C788.963 631.502 789.171 632.023 789.646 632.787C799.165 633.494 807.781 628.236 810.989 625.989C810.989 624.588 810.804 623.638 810.804 623.638C802.258 630.1 788.975 631.502 788.975 631.502L788.963 631.502Z" fill-rule="nonzero" fill="#FFFFFF"/>
		<path d="M806.184 609.498C806.184 611.815 807.214 613.702 808.488 613.702C809.762 613.702 810.793 611.826 810.793 609.498C810.793 607.171 809.762 605.295 808.488 605.295C807.214 605.295 806.184 607.171 806.184 609.498Z" fill-rule="nonzero" fill="#28120E"/>
		<path d="M782.559 609.498C782.559 611.815 783.589 613.702 784.863 613.702C786.137 613.702 787.168 611.826 787.168 609.498C787.168 607.182 786.137 605.295 784.863 605.295C783.589 605.295 782.559 607.171 782.559 609.498Z" fill-rule="nonzero" fill="#28120E"/>
		<path d="M851.603 604.82C851.603 604.82 844.202 600.002 837.972 608.607L833.131 608.607C833.131 608.607 833.409 598.647 831.059 593.251C828.707 587.854 819.432 587.993 818.042 581.624C818.042 581.624 796.143 590.333 780.439 584.461C764.736 578.578 811.812 552.418 834.51 565.156C857.219 577.895 855.123 587.889 851.603 604.831L851.603 604.82Z" fill-rule="nonzero" fill="#28120E"/>
		<path d="M818.25 604.125C818.25 604.125 816.432 599.389 812.286 597.883C808.441 596.482 805.546 597.258 804.075 597.895C803.427 598.172 803.103 598.891 803.288 599.574C803.508 600.373 804.365 600.813 805.141 600.535C807.619 599.632 812.981 598.671 818.25 604.137L818.25 604.125Z" fill-rule="nonzero" fill="#28120E"/>
		<path d="M779.004 596.528C778.957 597.13 778.923 597.733 778.888 598.346C783.357 596.644 786.948 598.045 788.766 599.099C788.951 599.203 789.148 599.261 789.356 599.284C789.924 599.331 790.503 599.03 790.758 598.474C791.059 597.837 790.862 597.072 790.271 596.69C788.928 595.799 786.218 594.536 782.188 595.254C780.995 595.463 779.918 595.949 779.004 596.54L779.004 596.528Z" fill-rule="nonzero" fill="#28120E"/>
		<path d="M846.101 641.322C848.464 639.77 849.969 638.137 850.27 636.435C850.965 632.474 851.347 627.055 851.532 621.172L839.314 629.568C839.314 629.568 839.152 638.265 846.112 641.31L846.101 641.322Z" fill-rule="nonzero" fill="#28120E"/>
		<path d="M837.983 608.607C837.983 608.607 845.406 599.62 851.614 604.82C858.458 610.552 853.212 630.008 839.315 629.568L837.995 608.595L837.983 608.607Z" fill-rule="nonzero" fill="#F9AE83"/>
		<path d="M838.968 625.352C839.582 625.352 840.114 624.889 840.185 624.264C841.319 614.42 847.155 612.903 847.398 612.845C848.047 612.683 848.464 612.035 848.313 611.375C848.163 610.726 847.515 610.309 846.866 610.46C846.554 610.529 839.096 612.324 837.764 623.986C837.683 624.658 838.169 625.26 838.841 625.341C838.887 625.341 838.934 625.341 838.979 625.341L838.968 625.352Z" fill-rule="nonzero" fill="#F58A69"/>
		<path d="M846.773 619.122C847.062 619.122 847.353 619.018 847.596 618.809C848.094 618.358 848.14 617.593 847.699 617.095C847.596 616.979 845.187 614.328 841.168 615.208C840.508 615.358 840.091 616.007 840.241 616.667C840.393 617.327 841.041 617.744 841.701 617.593C844.283 617.026 845.823 618.659 845.893 618.728C846.136 618.995 846.472 619.122 846.796 619.122L846.773 619.122Z" fill-rule="nonzero" fill="#F58A69"/>
		<path d="M801.03 643.221C807.318 643.221 810.41 639.145 810.561 638.948C810.966 638.404 810.851 637.639 810.306 637.234C809.762 636.829 808.997 636.944 808.592 637.489C808.453 637.674 805.326 641.658 798.841 640.581C798.181 640.465 797.544 640.917 797.429 641.588C797.312 642.26 797.764 642.885 798.436 643.001C799.351 643.152 800.219 643.221 801.03 643.221Z" fill-rule="nonzero" fill="#F58A69"/>
		<path d="M795.065 622.99C795.437 622.99 795.795 622.828 796.038 622.503C796.443 621.971 796.34 621.195 795.807 620.79L792.541 618.3L795.367 617.57C795.842 617.443 796.189 617.061 796.271 616.574L797.521 608.792C797.625 608.12 797.173 607.495 796.502 607.391C795.842 607.275 795.205 607.738 795.101 608.41L793.978 615.405L789.495 616.563C789.044 616.678 788.696 617.049 788.604 617.501C788.511 617.964 788.685 618.427 789.056 618.717L794.312 622.735C794.533 622.909 794.799 622.99 795.054 622.99L795.065 622.99Z" fill-rule="nonzero" fill="#F58A69"/>
		<path d="M838.714 851.579C838.076 853.896 836.386 855.806 834.116 856.906C830.618 858.597 837.394 856.872 829.553 857.984C822.478 859.003 794.313 864.723 787.029 864.04C780.579 863.519 778.263 863.125 772.333 861.342C764.655 859.014 754.812 855.146 745.918 850.549C742.027 848.534 740.255 844.179 741.737 840.3L762.745 763.74C763.011 763.046 763.173 762.316 763.242 761.587L778.437 677.257C778.749 673.458 781.771 670.366 785.79 669.729L804.574 666.741L812.275 665.526C816.525 664.854 820.833 664.715 825.095 665.062C829.356 665.468 833.571 666.348 837.637 667.749L845.939 670.621L862.986 676.492C866.831 677.824 869.274 681.391 868.927 685.189L857.068 770.909C857.022 771.372 856.941 771.824 856.813 772.276L838.69 851.603L838.714 851.579Z" fill-rule="nonzero" fill="#409EFF"/>
		<path d="M844.979 670.806L811.707 860.392C804.562 860.902 797.532 860.589 790.329 859.362C783.948 858.366 778.02 856.721 772.264 854.475L773.051 849.785L773.861 844.863L775.761 833.444L776.595 828.534L778.494 817.127L779.305 812.206L781.227 800.81L782.038 795.912L783.937 784.505L784.759 779.618L786.658 768.199L787.469 763.301L789.368 751.882L790.19 746.995L792.102 735.565L792.924 730.701L794.834 719.248L795.634 714.396L797.544 702.943L798.366 698.09L800.277 686.66L801.1 681.808L803.01 670.343L803.647 667.309L803.717 666.892L811.673 664.425C815.969 664.055 820.276 664.24 824.504 664.9C828.719 665.618 833.722 665.966 837.659 667.691L843.368 669.672L844.979 670.783L844.979 670.806Z" fill-rule="nonzero" fill="#FFFFFF"/>
		<path d="M843.913 677.118L843.068 681.901C835.714 681.901 828.661 681.171 822.246 680.117C814.313 678.82 807.365 677.002 802.096 675.392L802.895 670.552C812.159 673.412 827.399 677.129 843.82 677.083L843.901 677.118L843.913 677.118Z" fill-rule="nonzero" fill="#E2E2E2"/>
		<path d="M841.527 690.736L840.682 695.554C833.433 695.554 826.473 694.848 820.161 693.817C812.159 692.508 805.152 690.655 799.86 688.999L800.683 684.147C809.959 687.054 825.141 690.818 841.527 690.736Z" fill-rule="nonzero" fill="#E2E2E2"/>
		<path d="M839.061 704.737L838.203 709.578C831.058 709.59 824.202 708.906 817.972 707.887C809.924 706.567 802.883 704.679 797.532 702.966L798.354 698.113C807.596 701.078 822.686 704.888 839.061 704.726L839.061 704.737Z" fill-rule="nonzero" fill="#E2E2E2"/>
		<path d="M836.188 721.078L835.331 725.918C828.267 725.953 821.516 725.281 815.354 724.274C807.271 722.942 800.195 721.02 794.822 719.283L795.621 714.43C804.862 717.441 819.859 721.286 836.188 721.089L836.188 721.078Z" fill-rule="nonzero" fill="#E2E2E2"/>
		<path d="M833.317 737.43L832.472 742.259C825.5 742.305 818.829 741.668 812.727 740.661C804.585 739.329 797.498 737.36 792.102 735.588L792.924 730.724C802.13 733.793 817.023 737.661 833.317 737.43Z" fill-rule="nonzero" fill="#E2E2E2"/>
		<path d="M830.444 753.758L829.588 758.599C822.686 758.668 816.097 758.031 810.074 757.047C801.91 755.704 794.776 753.712 789.368 751.905L790.19 747.018C799.374 750.156 814.186 754.048 830.444 753.758Z" fill-rule="nonzero" fill="#E2E2E2"/>
		<path d="M827.572 770.098L826.716 774.939C819.895 775.032 813.363 774.406 807.399 773.434C799.234 772.09 792.09 770.075 786.646 768.222L787.457 763.324C796.629 766.508 811.336 770.434 827.572 770.098Z" fill-rule="nonzero" fill="#E2E2E2"/>
		<path d="M824.712 786.439L823.854 791.279C817.08 791.395 810.63 790.793 804.735 789.82C796.536 788.477 789.402 786.427 783.937 784.516L784.759 779.629C793.907 782.86 808.522 786.798 824.712 786.427L824.712 786.439Z" fill-rule="nonzero" fill="#E2E2E2"/>
		<path d="M821.84 802.779L820.982 807.643C814.277 807.747 807.896 807.156 802.037 806.195C793.838 804.852 786.704 802.767 781.227 800.822L782.037 795.923C791.151 799.223 805.696 803.196 821.84 802.779Z" fill-rule="nonzero" fill="#E2E2E2"/>
		<path d="M818.969 819.119L818.111 823.96C811.452 824.087 805.13 823.52 799.327 822.57C791.129 821.227 783.983 819.107 778.494 817.127L779.305 812.205C788.407 815.552 802.848 819.559 818.969 819.107L818.969 819.119Z" fill-rule="nonzero" fill="#E2E2E2"/>
		<path d="M816.096 835.448L815.239 840.323C808.638 840.462 802.361 839.906 796.617 838.968C788.396 837.625 781.262 835.482 775.761 833.467L776.595 828.557C785.674 831.95 800.022 835.969 816.096 835.459L816.096 835.448Z" fill-rule="nonzero" fill="#E2E2E2"/>
		<path d="M813.224 851.788L812.367 856.663C805.812 856.814 799.605 856.269 793.896 855.331C785.697 853.988 778.563 851.834 773.051 849.796L773.861 844.874C782.917 848.302 797.196 852.332 813.224 851.788Z" fill-rule="nonzero" fill="#E2E2E2"/>
		<path d="M442.46 794.383L1025.4 794.383L1025.4 809.634L442.46 809.634L442.46 794.383Z" fill-rule="evenodd" fill="#3D2027"/>
		<path d="M816.328 794.383L1025.4 794.383L1025.4 809.634L816.328 809.634L816.328 794.383Z" fill-rule="evenodd" fill="#3D2027"/>
		<path d="M425.656 790.862L1042.2 790.862L1042.2 797.903L425.656 797.903L425.656 790.862Z" fill-rule="evenodd" fill="#8C5D55"/>
		<path d="M929.378 566.87C929.378 566.87 926.043 562.203 924.78 557.652C923.507 553.101 922.371 548.283 921.642 545.458C920.762 542.065 924.051 542.574 925.834 545.238C928.521 549.279 928.486 551.827 928.486 551.827C928.486 551.827 927.409 533.043 929.111 528.284C930.663 523.929 931.764 534.259 933.165 542.759C933.165 542.759 935.272 524.439 938.098 523.084C941.804 521.301 939.175 543.489 939.175 543.489C939.175 543.489 943.541 527.415 945.394 528.203C947.455 529.083 944.988 546.083 944.988 546.083C944.988 546.083 948.973 535.313 950.003 536.263C952.053 538.162 948.416 562.342 940.229 569.951C940.229 569.951 931.138 568.978 929.39 566.893L929.378 566.87Z" fill-rule="nonzero" fill="#F9AE83"/>
		<path d="M916.478 601.265C923.021 582.122 928.591 566.048 928.591 566.048C933.142 563.616 937.925 565.006 942.707 566.442C938.979 600.477 930.281 626.452 921.469 645.769C909.425 666.359 859.327 705.513 859.327 705.513C845.419 699.097 852.83 678.82 852.83 678.82C879.859 654.697 905.29 633.227 905.695 632.891C906.784 629.683 910.907 617.582 916.488 601.265L916.478 601.265Z" fill-rule="nonzero" fill="#409EFF"/>
	</g>
	<defs>
		<clipPath id="clip3_3">
			<rect width="1500.000000" height="1500.000000" fill="white"/>
		</clipPath>
	</defs>
</svg>
